<svg width="155" height="55" viewBox="0 0 155 55" fill="none" xmlns="http://www.w3.org/2000/svg">
<path d="M155 0L41.6037 48.9442C32.2003 52.977 24.3017 55 17.9144 55C10.681 55 5.4303 52.4336 2.17527 47.2944C0.127965 43.9948 -0.472664 39.8113 0.366925 34.7375C1.20652 29.6637 3.44112 24.2626 7.05781 18.5145C10.0739 13.8662 15.0145 7.758 21.8927 0.183311C19.5597 3.90628 17.8489 7.99407 16.8293 12.2819C15.021 20.1053 16.6485 25.8469 21.7119 29.5131C24.1209 31.2219 27.434 32.0795 31.6578 32.0795C35.0291 32.0795 38.8266 31.5296 43.0504 30.4297L155 0Z" fill="white"/>
</svg>
