<svg width="287" height="24" viewBox="0 0 287 24" fill="none" xmlns="http://www.w3.org/2000/svg">
<path d="M11.328 15.256V23H8.992V15.256L0.032 0.599998H2.56L10.24 13.176L17.92 0.599998H20.288L11.328 15.256ZM35.9838 23.192C33.7651 23.192 31.7491 22.7013 29.9358 21.72C28.1438 20.7173 26.7358 19.352 25.7118 17.624C24.7091 15.896 24.2078 13.9547 24.2078 11.8C24.2078 9.64533 24.7091 7.704 25.7118 5.976C26.7358 4.248 28.1438 2.89333 29.9358 1.912C31.7491 0.909332 33.7651 0.407999 35.9838 0.407999C38.2024 0.407999 40.1971 0.898666 41.9678 1.88C43.7598 2.86133 45.1678 4.22667 46.1918 5.976C47.2158 7.704 47.7278 9.64533 47.7278 11.8C47.7278 13.9547 47.2158 15.9067 46.1918 17.656C45.1678 19.384 43.7598 20.7387 41.9678 21.72C40.1971 22.7013 38.2024 23.192 35.9838 23.192ZM35.9838 21.08C37.7544 21.08 39.3544 20.6853 40.7838 19.896C42.2131 19.0853 43.3331 17.976 44.1438 16.568C44.9544 15.1387 45.3598 13.5493 45.3598 11.8C45.3598 10.0507 44.9544 8.472 44.1438 7.064C43.3331 5.63467 42.2131 4.52533 40.7838 3.736C39.3544 2.92533 37.7544 2.52 35.9838 2.52C34.2131 2.52 32.6024 2.92533 31.1518 3.736C29.7224 4.52533 28.5918 5.63467 27.7598 7.064C26.9491 8.472 26.5438 10.0507 26.5438 11.8C26.5438 13.5493 26.9491 15.1387 27.7598 16.568C28.5918 17.976 29.7224 19.0853 31.1518 19.896C32.6024 20.6853 34.2131 21.08 35.9838 21.08ZM65.2595 23.192C62.3582 23.192 60.0968 22.36 58.4755 20.696C56.8542 19.032 56.0435 16.6107 56.0435 13.432V0.599998H58.4115V13.336C58.4115 15.9387 58.9982 17.88 60.1715 19.16C61.3448 20.44 63.0408 21.08 65.2595 21.08C67.4995 21.08 69.2062 20.44 70.3795 19.16C71.5528 17.88 72.1395 15.9387 72.1395 13.336V0.599998H74.4435V13.432C74.4435 16.6107 73.6328 19.032 72.0115 20.696C70.4115 22.36 68.1608 23.192 65.2595 23.192ZM100.075 23L94.9552 15.8C94.3792 15.864 93.7819 15.896 93.1632 15.896H87.1472V23H84.7792V0.599998H93.1632C96.0219 0.599998 98.2619 1.28267 99.8832 2.648C101.505 4.01333 102.315 5.89067 102.315 8.28C102.315 10.0293 101.867 11.512 100.971 12.728C100.097 13.9227 98.8379 14.7867 97.1952 15.32L102.667 23H100.075ZM93.0992 13.88C95.3179 13.88 97.0139 13.3893 98.1873 12.408C99.3606 11.4267 99.9472 10.0507 99.9472 8.28C99.9472 6.46667 99.3606 5.08 98.1873 4.12C97.0139 3.13867 95.3179 2.648 93.0992 2.648H87.1472V13.88H93.0992Z" fill="#BDBDBD" fill-opacity="0.5"/>
<path d="M117.472 23.384C115.702 23.384 113.984 23.1493 112.32 22.68C110.678 22.1893 109.355 21.56 108.352 20.792L110.112 16.888C111.072 17.592 112.214 18.1573 113.536 18.584C114.859 19.0107 116.182 19.224 117.504 19.224C118.976 19.224 120.064 19.0107 120.768 18.584C121.472 18.136 121.824 17.5493 121.824 16.824C121.824 16.2907 121.611 15.8533 121.184 15.512C120.779 15.1493 120.246 14.8613 119.584 14.648C118.944 14.4347 118.07 14.2 116.96 13.944C115.254 13.5387 113.856 13.1333 112.768 12.728C111.68 12.3227 110.742 11.672 109.952 10.776C109.184 9.88 108.8 8.68533 108.8 7.192C108.8 5.89067 109.152 4.71733 109.856 3.672C110.56 2.60533 111.616 1.76267 113.024 1.144C114.454 0.525333 116.192 0.216 118.24 0.216C119.67 0.216 121.067 0.386666 122.432 0.727999C123.798 1.06933 124.992 1.56 126.016 2.2L124.416 6.136C122.347 4.96267 120.278 4.376 118.208 4.376C116.758 4.376 115.68 4.61067 114.976 5.08C114.294 5.54933 113.952 6.168 113.952 6.936C113.952 7.704 114.347 8.28 115.136 8.664C115.947 9.02667 117.174 9.38933 118.816 9.752C120.523 10.1573 121.92 10.5627 123.008 10.968C124.096 11.3733 125.024 12.0133 125.792 12.888C126.582 13.7627 126.976 14.9467 126.976 16.44C126.976 17.72 126.614 18.8933 125.888 19.96C125.184 21.0053 124.118 21.8373 122.688 22.456C121.259 23.0747 119.52 23.384 117.472 23.384ZM154.263 0.599998V23H150.007L138.839 9.4V23H133.719V0.599998H138.007L149.142 14.2V0.599998H154.263ZM180.106 18.84V23H162.762V0.599998H179.69V4.76H167.914V9.624H178.314V13.656H167.914V18.84H180.106ZM202.183 18.2H191.783L189.799 23H184.487L194.471 0.599998H199.591L209.607 23H204.167L202.183 18.2ZM200.551 14.264L196.999 5.688L193.447 14.264H200.551ZM223.291 14.2L220.283 17.336V23H215.131V0.599998H220.283V11.064L230.203 0.599998H235.963L226.683 10.584L236.507 23H230.459L223.291 14.2ZM259.363 18.84V23H242.019V0.599998H258.947V4.76H247.171V9.624H257.571V13.656H247.171V18.84H259.363ZM280.959 23L276.639 16.76H276.383H271.871V23H266.687V0.599998H276.383C278.367 0.599998 280.085 0.930665 281.535 1.592C283.007 2.25333 284.138 3.192 284.927 4.408C285.717 5.624 286.111 7.064 286.111 8.728C286.111 10.392 285.706 11.832 284.895 13.048C284.106 14.2427 282.975 15.16 281.503 15.8L286.527 23H280.959ZM280.863 8.728C280.863 7.46933 280.458 6.50933 279.647 5.848C278.837 5.16533 277.653 4.824 276.095 4.824H271.871V12.632H276.095C277.653 12.632 278.837 12.2907 279.647 11.608C280.458 10.9253 280.863 9.96533 280.863 8.728Z" fill="white"/>
</svg>
